<svg width="584" height="101" viewBox="0 0 584 101" fill="none" xmlns="http://www.w3.org/2000/svg">
<mask id="mask0_17_124" style="mask-type:alpha" maskUnits="userSpaceOnUse" x="0" y="0" width="584" height="101">
<rect width="584" height="101" fill="#D9D9D9"/>
</mask>
<g mask="url(#mask0_17_124)">
<path d="M573.193 64.4546V23.1818H583.92V93H573.193V81.1818H572.466C570.83 84.7273 568.284 87.7424 564.829 90.2273C561.375 92.6818 557.011 93.9091 551.739 93.9091C547.375 93.9091 543.496 92.9546 540.102 91.0455C536.708 89.1061 534.042 86.197 532.102 82.3182C530.163 78.4091 529.193 73.4849 529.193 67.5455V23.1818H539.92V66.8182C539.92 71.9091 541.345 75.9697 544.193 79C547.072 82.0303 550.739 83.5455 555.193 83.5455C557.86 83.5455 560.572 82.8636 563.329 81.5C566.117 80.1364 568.451 78.0455 570.329 75.2273C572.239 72.4091 573.193 68.8182 573.193 64.4546Z" fill="#DEEAEB"/>
<path d="M490.947 15.2783L475.937 38.4471L463.539 11.9843L490.947 15.2783Z" fill="#08E287"/>
<path d="M442.717 76.9616C440.955 75.09 440.167 72.5287 440.007 69.5337C439.691 42.3537 449.462 26.9151 469.453 17.9173C471.329 17.0936 473.11 17.1942 474.685 18.5943C477.929 21.3714 477.386 27.2316 473.649 29.5455C460.671 37.8663 452.484 50.6305 451.304 71.246C451.145 77.4541 446.459 80.751 442.717 76.9616Z" fill="#08E287"/>
<path d="M464.712 93.4381L482.781 72.5673L491.402 100.49L464.712 93.4381Z" fill="#08E287"/>
<path d="M521.008 39.016C522.495 41.1134 522.921 43.759 522.665 46.7473C519.22 73.71 507.408 87.6492 486.365 93.7965C484.393 94.3529 482.643 94.0069 481.277 92.4026C478.448 89.2036 479.796 83.4747 483.817 81.6998C497.821 75.2533 507.694 63.7437 511.713 43.4894C512.729 37.3629 517.826 34.7457 521.008 39.016Z" fill="#08E287"/>
<path d="M371.023 -0.0909119H383.932L409.75 43.3636H410.841L436.659 -0.0909119H449.568L415.932 54.6364V93H404.659V54.6364L371.023 -0.0909119Z" fill="#DEEAEB"/>
<path d="M306.318 93V84.8182L345.955 33.9091V33.1818H307.591V23.1818H359.773V31.7273L321.227 82.2727V83H361.045V93H306.318Z" fill="#DEEAEB"/>
<path d="M277.943 64.4546V23.1818H288.67V93H277.943V81.1818H277.216C275.58 84.7273 273.034 87.7424 269.58 90.2273C266.125 92.6818 261.761 93.9091 256.489 93.9091C252.125 93.9091 248.246 92.9546 244.852 91.0455C241.458 89.1061 238.792 86.197 236.852 82.3182C234.913 78.4091 233.943 73.4849 233.943 67.5455V23.1818H244.67V66.8182C244.67 71.9091 246.095 75.9697 248.943 79C251.822 82.0303 255.489 83.5455 259.943 83.5455C262.61 83.5455 265.322 82.8636 268.08 81.5C270.867 80.1364 273.201 78.0455 275.08 75.2273C276.989 72.4091 277.943 68.8182 277.943 64.4546Z" fill="#DEEAEB"/>
<path d="M180.807 94.4545C174.989 94.4545 169.852 92.9848 165.398 90.0455C160.943 87.0758 157.458 82.8939 154.943 77.5C152.428 72.0758 151.17 65.6667 151.17 58.2727C151.17 50.9394 152.428 44.5758 154.943 39.1818C157.458 33.7879 160.958 29.6212 165.443 26.6818C169.928 23.7424 175.11 22.2727 180.989 22.2727C185.534 22.2727 189.125 23.0303 191.761 24.5455C194.428 26.0303 196.458 27.7273 197.852 29.6364C199.277 31.5151 200.383 33.0606 201.17 34.2727H202.08V-0.0909119H212.807V93H202.443V82.2727H201.17C200.383 83.5455 199.261 85.1515 197.807 87.0909C196.352 89 194.277 90.7121 191.58 92.2273C188.883 93.7121 185.292 94.4545 180.807 94.4545ZM182.261 84.8182C186.564 84.8182 190.201 83.697 193.17 81.4545C196.14 79.1818 198.398 76.0455 199.943 72.0455C201.489 68.0152 202.261 63.3636 202.261 58.0909C202.261 52.8788 201.504 48.3182 199.989 44.4091C198.473 40.4697 196.231 37.4091 193.261 35.2273C190.292 33.0151 186.625 31.9091 182.261 31.9091C177.716 31.9091 173.928 33.0758 170.898 35.4091C167.898 37.7121 165.64 40.8485 164.125 44.8182C162.64 48.7576 161.898 53.1818 161.898 58.0909C161.898 63.0606 162.655 67.5758 164.17 71.6364C165.716 75.6667 167.989 78.8788 170.989 81.2727C174.019 83.6364 177.777 84.8182 182.261 84.8182Z" fill="#DEEAEB"/>
<path d="M109.216 94.4546C102.489 94.4546 96.6856 92.9697 91.8068 90C86.9583 87 83.2159 82.8182 80.5796 77.4546C77.9735 72.0606 76.6705 65.7879 76.6705 58.6364C76.6705 51.4849 77.9735 45.1818 80.5796 39.7273C83.2159 34.2424 86.8826 29.9697 91.5796 26.9091C96.3068 23.8182 101.822 22.2727 108.125 22.2727C111.761 22.2727 115.352 22.8788 118.898 24.0909C122.443 25.303 125.67 27.2727 128.58 30C131.489 32.697 133.807 36.2727 135.534 40.7273C137.261 45.1818 138.125 50.6667 138.125 57.1818V61.7273H84.3068V52.4546H127.216C127.216 48.5152 126.428 45 124.852 41.9091C123.307 38.8182 121.095 36.3788 118.216 34.5909C115.367 32.803 112.004 31.9091 108.125 31.9091C103.852 31.9091 100.155 32.9697 97.0341 35.0909C93.9432 37.1818 91.5644 39.9091 89.8977 43.2727C88.2311 46.6364 87.3977 50.2424 87.3977 54.0909V60.2727C87.3977 65.5455 88.3068 70.0152 90.125 73.6818C91.9735 77.3182 94.5341 80.0909 97.8068 82C101.08 83.8788 104.883 84.8182 109.216 84.8182C112.034 84.8182 114.58 84.4242 116.852 83.6364C119.155 82.8182 121.14 81.6061 122.807 80C124.474 78.3636 125.761 76.3333 126.67 73.9091L137.034 76.8182C135.943 80.3333 134.11 83.4243 131.534 86.0909C128.958 88.7273 125.777 90.7879 121.989 92.2727C118.201 93.7273 113.943 94.4546 109.216 94.4546Z" fill="#DEEAEB"/>
<path d="M0.272736 93V-0.0909119H31.7273C39 -0.0909119 44.9697 1.15151 49.6364 3.63636C54.303 6.0909 57.7576 9.46969 60 13.7727C62.2424 18.0758 63.3636 22.9697 63.3636 28.4545C63.3636 33.9394 62.2424 38.803 60 43.0455C57.7576 47.2879 54.3182 50.6212 49.6818 53.0455C45.0455 55.4394 39.1212 56.6364 31.9091 56.6364H6.45455V46.4545H31.5455C36.5152 46.4545 40.5152 45.7273 43.5455 44.2727C46.6061 42.8182 48.8182 40.7576 50.1818 38.0909C51.5758 35.3939 52.2727 32.1818 52.2727 28.4545C52.2727 24.7273 51.5758 21.4697 50.1818 18.6818C48.7879 15.8939 46.5606 13.7424 43.5 12.2273C40.4394 10.6818 36.3939 9.90909 31.3636 9.90909H11.5455V93H0.272736ZM44.0909 51.1818L67 93H53.9091L31.3636 51.1818H44.0909Z" fill="#DEEAEB"/>
</g>
</svg>
